<?xml version="1.0" standalone="no"?>
<!DOCTYPE svg PUBLIC "-//W3C//DTD SVG 20010904//EN"
 "http://www.w3.org/TR/2001/REC-SVG-20010904/DTD/svg10.dtd">
<svg version="1.0" xmlns="http://www.w3.org/2000/svg"
 width="227.000000pt" height="227.000000pt" viewBox="0 0 227.000000 227.000000"
 preserveAspectRatio="xMidYMid meet">

<g transform="translate(0.000000,227.000000) scale(0.100000,-0.100000)"
fill="#000000" stroke="none">
<path d="M1015 2223 c-351 -45 -648 -240 -823 -538 -76 -129 -128 -282 -139
-409 -6 -63 -7 -66 -19 -45 -12 22 -13 20 -14 -31 -4 -180 12 -298 61 -436
136 -390 477 -672 889 -735 118 -18 325 -6 443 25 116 30 279 105 372 171 233
166 397 425 451 712 25 132 15 365 -20 493 -34 122 -99 256 -174 356 -91 123
-271 281 -305 268 -8 -3 -18 -1 -22 5 -4 7 1 9 12 5 16 -5 16 -4 -2 10 -11 9
-25 14 -33 11 -7 -2 -11 -1 -8 4 8 12 -40 35 -55 26 -8 -6 -10 -4 -4 5 5 8 3
11 -6 8 -8 -3 -25 0 -39 7 -133 67 -402 109 -565 88z m-135 -61 c0 -15 -24
-32 -44 -32 -19 0 -19 0 0 -21 l18 -21 9 26 c5 16 16 26 28 26 23 0 23 1 4
-43 -8 -21 -12 -48 -9 -66 5 -25 3 -29 -12 -27 -10 2 -20 9 -22 17 -3 8 -18
28 -34 45 -27 29 -28 32 -13 60 15 30 75 59 75 36z m200 -17 c0 -8 -7 -15 -16
-15 -14 0 -16 -8 -12 -44 5 -37 2 -45 -13 -49 -11 -3 -20 -1 -20 4 -1 5 -3 14
-4 19 -1 6 -3 23 -4 39 -1 24 -5 28 -21 24 -14 -4 -20 0 -20 10 0 20 15 25 68
26 31 1 42 -3 42 -14z m60 -5 c0 -11 7 -20 15 -20 8 0 15 9 15 20 0 13 7 20
20 20 18 0 20 -7 20 -60 0 -53 -2 -60 -20 -60 -15 0 -20 7 -20 26 0 19 -4 25
-17 22 -12 -3 -17 -12 -16 -26 2 -16 -3 -22 -17 -22 -18 0 -20 7 -20 60 0 53
2 60 20 60 13 0 20 -7 20 -20z m132 -33 c-3 -36 0 -47 11 -47 17 0 27 21 27
56 0 18 5 24 21 24 20 0 21 -4 14 -47 -9 -67 -36 -86 -90 -61 -20 9 -25 18
-25 47 0 55 10 82 29 79 13 -3 15 -13 13 -51z m199 26 c9 -10 10 -18 4 -20 -7
-2 -9 -29 -7 -68 4 -61 3 -65 -17 -65 -12 0 -21 6 -21 14 0 19 -24 27 -60 19
-17 -3 -30 -2 -30 2 0 4 18 29 41 56 22 27 38 53 35 58 -6 9 8 19 30 20 6 1
18 -6 25 -16z m-707 -67 c-5 -32 -3 -36 27 -51 31 -17 32 -18 14 -31 -24 -18
-30 -17 -45 1 -18 22 -33 19 -20 -4 14 -28 13 -33 -11 -29 -29 4 -69 95 -48
109 9 6 18 3 27 -8 11 -15 12 -15 12 -1 0 18 26 48 41 48 6 0 7 -14 3 -34z
m803 -3 c44 -19 62 -50 22 -40 -17 5 -24 -1 -37 -34 -10 -26 -21 -39 -34 -39
-22 0 -23 10 -1 56 17 34 17 36 0 45 -10 6 -15 14 -12 20 8 12 13 12 62 -8z
m-960 -80 c9 -16 25 -38 36 -50 19 -21 19 -21 -1 -32 -28 -15 -47 -14 -62 4
-7 8 -17 15 -23 15 -6 0 0 -11 12 -24 23 -24 21 -46 -3 -46 -7 0 -27 20 -45
45 -27 37 -31 49 -21 60 16 19 44 19 60 0 7 -8 17 -15 23 -15 5 0 2 9 -8 20
-17 19 -15 50 4 50 6 0 18 -12 28 -27z m801 -10 c-4 -22 -22 -20 -26 1 -2 10
3 16 13 16 10 0 15 -7 13 -17z m332 -13 c26 -26 25 -51 -1 -84 -11 -14 -17
-26 -13 -26 5 0 3 -5 -3 -11 -9 -9 -20 -5 -45 12 -40 28 -48 38 -48 64 0 58
69 86 110 45z m-1290 -42 c0 -10 2 -10 8 -1 5 8 12 9 22 2 13 -8 11 -12 -10
-28 -14 -11 -21 -23 -17 -27 4 -4 15 1 26 10 26 23 39 2 15 -25 -20 -23 -8
-26 16 -4 14 13 19 13 28 2 8 -10 3 -20 -25 -42 l-37 -29 -36 42 c-33 39 -48
82 -34 103 8 14 44 11 44 -3z m1368 -20 c9 -9 5 -19 -20 -45 -25 -26 -29 -36
-20 -45 9 -9 19 -5 45 20 30 29 35 31 47 17 11 -14 8 -21 -20 -50 -40 -42 -63
-44 -95 -9 -26 28 -25 42 12 92 26 35 33 38 51 20z m-1363 -147 c-14 -14 -20
-11 -57 26 -36 36 -40 44 -28 58 12 14 18 12 57 -27 38 -38 41 -44 28 -57z
m91 30 c-10 -16 -36 -13 -36 3 0 17 21 27 34 16 4 -5 5 -13 2 -19z m-180 -4
c6 -12 19 -36 30 -54 17 -29 17 -34 4 -47 -14 -14 -21 -13 -73 6 -60 22 -62
24 -47 48 8 12 14 12 45 -3 l37 -18 -22 35 c-21 35 -20 56 3 56 7 0 17 -10 23
-23z m1604 8 c11 -13 9 -19 -8 -36 -12 -11 -32 -39 -43 -62 -12 -23 -23 -44
-25 -46 -8 -9 -32 22 -27 35 7 18 -14 44 -31 38 -7 -3 -19 2 -25 10 -14 17 -7
21 77 47 23 7 42 16 42 21 0 14 27 9 40 -7z m-296 -30 c14 -22 16 -88 16 -589
0 -310 -3 -571 -6 -580 -5 -14 -37 -16 -256 -16 -152 0 -257 -4 -269 -10 -11
-7 -21 -26 -25 -51 l-7 -39 -268 0 c-213 1 -270 4 -279 15 -15 18 -20 1165 -5
1166 6 0 106 1 224 2 l213 2 12 34 c13 40 49 70 97 81 19 4 147 8 285 8 l252
2 16 -25z m336 -85 c9 -16 7 -27 -10 -50 -23 -32 -17 -38 14 -15 21 16 36 12
36 -10 0 -12 -82 -65 -101 -65 -20 0 -20 44 0 71 25 33 21 36 -15 13 -19 -13
-28 -14 -37 -5 -14 14 -4 24 50 57 48 28 50 28 63 4z m-1750 -54 c0 -7 -10
-20 -22 -28 l-22 -15 27 -17 c30 -20 47 -15 40 12 -2 10 2 24 10 31 13 10 17
8 22 -9 9 -29 -12 -77 -37 -83 -23 -6 -69 9 -80 26 -12 19 -9 46 8 72 17 27
54 34 54 11z m-30 -121 c37 -19 45 -46 25 -85 -12 -24 -22 -30 -48 -30 -49 1
-69 21 -65 66 2 29 9 42 28 51 31 16 26 16 60 -2z m1878 -28 c15 -31 8 -67
-14 -67 -9 0 -15 12 -15 33 -2 30 -2 30 -8 -8 -5 -36 -9 -40 -35 -40 -24 0
-32 6 -42 31 -11 26 -11 35 1 50 12 16 16 17 24 5 7 -11 11 -9 21 8 15 30 51
24 68 -12z m-1808 -55 c0 -10 -7 -19 -15 -19 -8 0 -15 9 -15 19 0 10 7 18 15
18 8 0 15 -8 15 -18z m-70 -65 c0 -4 0 -13 0 -21 0 -9 -8 -12 -25 -8 -18 3
-25 0 -25 -12 0 -9 8 -16 20 -16 13 0 20 -7 20 -20 0 -22 -16 -25 -82 -14 -28
5 -38 11 -38 25 0 14 7 19 25 19 16 0 25 6 25 15 0 8 -9 15 -20 15 -18 0 -29
28 -15 42 7 7 116 -16 115 -25z m1910 14 c0 -13 -11 -20 -42 -27 -28 -6 -44
-15 -46 -26 -3 -16 2 -17 42 -12 34 5 49 3 60 -9 27 -26 18 -32 -44 -34 -51
-1 -62 2 -75 20 -31 44 -15 85 36 97 56 13 69 11 69 -9z m-130 -66 c0 -8 -7
-15 -15 -15 -8 0 -15 7 -15 15 0 8 7 15 15 15 8 0 15 -7 15 -15z m-1973 -162
c-2 -16 -4 -5 -4 22 0 28 2 40 4 28 2 -13 2 -35 0 -50z m123 17 c0 -5 7 -10
15 -10 17 0 20 -16 5 -25 -6 -4 -8 -10 -5 -15 3 -4 -9 -10 -25 -12 -26 -4 -29
-2 -24 14 3 10 1 18 -5 18 -6 0 -11 5 -11 10 0 6 7 10 15 10 8 0 15 5 15 10 0
6 5 10 10 10 6 0 10 -4 10 -10z m1965 0 c-3 -5 1 -10 10 -10 12 0 15 -5 11
-16 -3 -9 -6 -23 -6 -31 0 -12 -3 -13 -14 -4 -10 8 -16 9 -21 1 -9 -15 -25 -2
-18 15 3 9 -1 15 -8 15 -8 0 -6 7 7 19 20 20 50 29 39 11z m-1895 -179 c0 -22
-6 -32 -22 -37 -23 -7 -23 -7 4 -16 21 -7 30 -19 38 -51 6 -23 15 -50 20 -59
17 -29 12 -37 -30 -48 -36 -10 -40 -14 -38 -37 4 -36 -20 -41 -32 -7 -16 42
-9 57 40 77 41 16 42 17 10 11 -19 -3 -45 -8 -57 -11 -18 -4 -23 -1 -23 15 0
16 9 22 38 27 20 3 44 10 52 15 10 7 4 8 -20 3 -19 -4 -46 -7 -60 -8 -36 0
-32 28 5 36 l30 7 -31 1 c-20 1 -34 7 -38 17 -4 9 -5 18 -4 19 2 1 12 8 23 14
20 12 19 12 -2 8 -14 -3 -23 1 -26 13 -4 15 4 20 42 28 77 16 81 15 81 -17z
m1842 -36 c51 -32 67 -70 25 -60 -12 4 -36 1 -52 -5 l-30 -12 45 -18 c59 -23
67 -45 14 -37 l-39 6 28 -17 c36 -22 31 -46 -13 -52 l-35 -6 28 -7 c15 -4 27
-14 27 -22 0 -19 -4 -19 -68 0 -55 17 -55 17 -45 54 5 20 10 22 39 18 41 -7
44 0 8 13 -24 9 -26 14 -19 48 8 42 21 62 41 62 19 0 18 16 -1 24 -8 3 -15 15
-15 27 0 24 -1 24 62 -16z m-1765 -232 c3 -7 -19 -23 -48 -38 -40 -19 -55 -22
-66 -13 -17 14 -10 21 42 48 43 21 66 22 72 3z m1663 -8 c0 -3 -7 -17 -16 -30
-9 -14 -12 -25 -6 -25 6 0 14 9 17 20 3 11 10 20 15 20 16 0 21 -19 10 -40 -7
-13 -7 -20 -1 -20 6 0 15 9 21 20 12 23 30 27 30 6 0 -18 -32 -76 -43 -76 -6
0 -83 45 -96 56 -10 9 35 74 51 74 10 0 18 -2 18 -5z m-1612 -65 c26 -46 28
-60 7 -60 -8 0 -15 5 -15 10 0 16 -23 11 -50 -10 -30 -24 -46 -25 -54 -5 -3
10 8 24 34 41 29 19 37 30 30 39 -5 6 -7 15 -3 18 14 15 29 5 51 -33z m1590
-46 c12 -8 22 -24 22 -36 0 -19 -36 -88 -46 -88 -2 0 -27 15 -54 34 l-50 35
31 35 c34 39 62 45 97 20z m-1518 -49 c10 -12 7 -23 -14 -61 -35 -62 -33 -65
12 -20 l39 37 30 -34 c17 -19 41 -40 53 -47 16 -9 20 -17 16 -36 -7 -25 3 -31
20 -14 13 13 44 2 44 -14 0 -7 -18 -18 -41 -25 -22 -7 -43 -19 -46 -27 -6 -16
-29 -19 -38 -4 -4 6 -2 17 5 25 6 7 13 30 16 49 4 34 3 35 -15 24 -11 -7 -25
-22 -32 -35 -7 -13 -18 -23 -25 -23 -18 0 -26 30 -13 47 18 21 2 29 -20 9 -18
-16 -20 -16 -42 15 -13 18 -23 42 -24 54 0 13 -8 21 -22 23 -12 2 -27 10 -33
17 -10 12 -7 16 11 24 13 5 35 13 49 19 36 15 56 14 70 -3z m1426 -56 c27 -11
50 -22 53 -24 7 -8 -21 -35 -30 -29 -14 8 -38 -20 -36 -42 1 -12 -4 -19 -15
-18 -10 1 -18 -3 -18 -9 0 -18 -42 -57 -62 -57 -25 0 -68 44 -68 70 0 28 35
60 65 60 14 0 25 -4 25 -9 0 -13 -26 -32 -33 -24 -13 12 -19 -28 -7 -42 18
-21 34 -19 45 8 6 12 17 21 24 19 7 -1 11 1 9 5 -2 5 -13 25 -23 45 -16 30
-17 39 -6 52 17 20 20 20 77 -5z m-170 -161 c58 -42 58 -49 -1 -52 -11 -1 -25
-13 -33 -28 -7 -16 -19 -28 -26 -28 -13 0 -41 114 -31 130 11 19 47 10 91 -22z
m-932 -29 c51 -23 85 -45 83 -52 -5 -13 -9 -13 -42 -2 -17 6 -16 4 4 -13 28
-22 21 -48 -9 -32 -24 13 -30 13 -30 0 0 -5 6 -10 14 -10 7 0 19 -7 26 -15 19
-23 -9 -29 -53 -10 l-37 15 17 41 c13 35 14 42 2 50 -10 6 -19 -2 -33 -31 -21
-43 -24 -44 -44 -31 -11 7 -10 16 7 49 19 37 19 42 5 50 -9 5 -14 14 -10 21 9
14 1 17 100 -30z m743 -48 c14 -36 18 -39 44 -34 22 4 29 2 29 -10 0 -13 -46
-37 -72 -37 -12 0 -50 91 -44 107 10 24 27 13 43 -26z m-53 -40 c20 -27 36
-52 36 -56 0 -4 -18 -4 -39 0 -34 6 -41 3 -51 -14 -12 -23 -40 -29 -40 -9 0 6
-6 4 -14 -7 -8 -11 -25 -18 -44 -17 -39 1 -51 8 -63 36 -7 16 -8 14 -3 -11 5
-28 3 -33 -15 -33 -15 0 -21 8 -24 33 -4 31 -4 31 -5 -5 -2 -34 -5 -38 -27
-38 -20 0 -29 8 -40 33 -9 21 -15 26 -16 15 -3 -35 -4 -38 -11 -38 -5 0 -12 0
-18 0 -5 0 -11 21 -12 48 l-1 47 -6 -45 c-4 -32 -11 -46 -23 -48 -13 -3 -18 3
-18 22 0 16 -6 26 -15 26 -8 0 -15 -9 -15 -19 0 -24 -12 -32 -29 -21 -9 5 -12
21 -9 45 4 31 2 36 -14 32 -10 -3 -16 -2 -13 3 7 11 -22 33 -35 25 -5 -3 -10
-19 -10 -35 0 -27 2 -29 30 -23 23 4 30 2 30 -10 0 -37 -86 -30 -100 8 -23 61
30 113 87 85 15 -7 37 -14 48 -14 13 -1 21 -9 23 -23 4 -28 32 -31 32 -3 0 17
7 19 54 18 30 -1 53 -6 53 -12 0 -29 4 -46 12 -46 4 0 6 11 3 25 -2 14 0 25 6
25 5 0 24 3 41 6 26 5 31 3 31 -12 0 -16 2 -16 16 4 13 19 24 22 57 20 29 -2
42 -8 42 -18 0 -10 -9 -14 -30 -13 -33 3 -45 -10 -38 -38 6 -21 28 -25 39 -8
3 6 17 9 30 6 22 -4 24 -1 24 37 0 42 13 66 36 66 7 0 28 -22 48 -49z"/>
<path d="M1415 2060 c-3 -5 -1 -10 4 -10 6 0 11 5 11 10 0 6 -2 10 -4 10 -3 0
-8 -4 -11 -10z"/>
<path d="M1682 1938 c-16 -16 -15 -48 1 -48 19 0 37 21 37 42 0 21 -20 24 -38
6z"/>
<path d="M1885 1730 c-3 -5 -1 -10 4 -10 6 0 11 5 11 10 0 6 -2 10 -4 10 -3 0
-8 -4 -11 -10z"/>
<path d="M1083 1730 c-19 -11 -35 -31 -39 -47 -3 -15 -7 -34 -10 -40 -2 -10
-56 -13 -224 -13 l-220 0 0 -551 c0 -514 1 -553 17 -565 14 -10 73 -13 251
-14 l233 0 14 34 c27 65 33 66 302 66 l243 0 0 559 c0 308 -3 566 -6 575 -5
14 -38 16 -268 16 -242 0 -263 -2 -293 -20z m547 -545 l0 -554 -251 -3 -251
-3 -24 -28 c-13 -15 -24 -37 -24 -48 0 -19 -7 -19 -237 -17 l-238 3 0 540 0
540 223 3 c216 2 222 3 222 23 0 37 29 78 63 88 17 5 141 10 275 10 l242 1 0
-555z"/>
<path d="M1295 1600 c-4 -16 -3 -35 1 -41 5 -9 1 -10 -14 -6 -64 20 -68 20
-38 -1 16 -11 35 -18 42 -15 22 8 16 -9 -13 -39 -15 -15 -23 -28 -17 -28 15 1
54 37 54 50 0 10 3 10 15 0 8 -7 15 -18 15 -26 0 -7 5 -16 10 -19 19 -12 10
35 -10 52 -22 20 -12 32 30 34 23 1 22 2 -5 8 -16 4 -31 3 -33 -1 -2 -4 -8 -8
-14 -8 -7 0 -8 14 -5 35 7 43 -9 47 -18 5z"/>
<path d="M804 1345 c-6 -24 -3 -49 12 -109 5 -22 3 -26 -15 -26 -13 0 -26 -10
-32 -24 -7 -15 -27 -28 -57 -37 -86 -26 -79 -67 16 -91 23 -6 45 -14 48 -19 3
-5 14 -9 24 -9 30 0 33 -18 12 -68 -33 -76 -37 -115 -14 -135 18 -16 23 -17
53 -4 19 8 57 35 86 61 51 46 52 47 78 30 14 -9 25 -20 25 -25 0 -11 83 -59
104 -59 9 0 20 10 25 23 10 25 -1 104 -19 136 -17 33 -12 37 56 48 71 12 114
35 114 59 0 17 -73 54 -105 53 -12 0 -3 -7 20 -15 46 -17 70 -38 61 -53 -9
-13 -101 -41 -138 -41 -21 0 -32 7 -40 26 -16 33 9 76 49 85 25 6 25 7 4 8
-17 1 -22 5 -17 18 31 81 38 115 28 139 -17 36 -51 30 -122 -22 l-63 -46 -51
50 c-80 78 -130 94 -142 47z m92 -17 c31 -23 43 -35 77 -75 l18 -21 -35 12
c-20 7 -39 15 -42 19 -4 4 -20 7 -36 7 -21 0 -28 -5 -28 -20 0 -35 -19 -22
-30 20 -21 78 14 104 76 58z m272 -45 c3 -28 -26 -110 -55 -158 -13 -20 -13
-20 -33 5 -23 29 -27 15 -5 -18 14 -19 14 -24 0 -52 -9 -18 -23 -30 -36 -30
-17 0 -18 3 -9 20 6 12 14 40 18 63 7 38 11 43 42 48 l35 6 -36 2 c-27 1 -41
8 -58 32 -26 35 -22 43 44 91 53 39 89 35 93 -9z m-178 -80 c61 -55 47 -153
-26 -188 -18 -8 -37 -15 -44 -15 -20 0 -5 25 17 28 11 2 31 14 44 28 44 47 19
138 -41 151 -36 7 -40 23 -5 23 14 0 39 -12 55 -27z m-45 -25 c46 -21 46 -99
0 -120 -18 -8 -27 -7 -39 3 -8 8 -22 20 -31 27 -22 19 -19 38 13 72 32 35 25
33 57 18z m-165 -55 c0 -16 -7 -36 -15 -47 -13 -18 -15 -18 -51 0 -21 11 -39
24 -41 30 -4 13 54 42 85 43 18 1 22 -4 22 -26z m330 -78 c0 -7 -6 -16 -12
-19 -7 -3 -5 -4 6 -3 39 4 77 -156 40 -170 -21 -8 -74 20 -113 61 l-31 32 27
37 c16 20 34 36 42 37 8 0 11 3 8 6 -9 10 12 46 24 39 5 -4 9 -12 9 -20z m-70
-33 c0 -5 -11 -18 -23 -31 -22 -19 -25 -20 -37 -6 -11 13 -10 18 6 30 21 16
54 20 54 7z m-124 -37 c26 13 30 13 48 -4 10 -11 16 -26 13 -33 -9 -25 -114
-99 -144 -101 -24 -2 -28 2 -31 26 -2 15 4 50 13 76 l16 49 28 -14 c25 -12 32
-12 57 1z"/>
<path d="M910 1159 c0 -6 7 -17 15 -26 14 -14 14 -17 -1 -34 -19 -21 -13 -35
10 -26 25 10 31 55 11 77 -20 22 -35 26 -35 9z"/>
<path d="M173 1454 c-7 -18 12 -34 40 -34 23 0 22 27 -2 40 -26 13 -31 13 -38
-6z"/>
<path d="M2026 1441 c-4 -7 -5 -15 -2 -18 9 -9 19 4 14 18 -4 11 -6 11 -12 0z"/>
<path d="M1876 552 c-5 -9 34 -42 49 -42 4 0 5 10 3 23 -3 23 -41 37 -52 19z"/>
<path d="M375 500 c-3 -5 -1 -10 4 -10 6 0 11 5 11 10 0 6 -2 10 -4 10 -3 0
-8 -4 -11 -10z"/>
<path d="M466 431 c-4 -5 -2 -12 3 -15 5 -4 12 -2 15 3 4 5 2 12 -3 15 -5 4
-12 2 -15 -3z"/>
<path d="M1820 439 c0 -5 5 -7 10 -4 6 3 10 8 10 11 0 2 -4 4 -10 4 -5 0 -10
-5 -10 -11z"/>
<path d="M1630 300 c0 -5 5 -10 11 -10 5 0 7 5 4 10 -3 6 -8 10 -11 10 -2 0
-4 -4 -4 -10z"/>
<path d="M1390 190 c0 -5 5 -10 10 -10 6 0 10 5 10 10 0 6 -4 10 -10 10 -5 0
-10 -4 -10 -10z"/>
<path d="M32 1290 c0 -19 2 -27 5 -17 2 9 2 25 0 35 -3 9 -5 1 -5 -18z"/>
</g>
</svg>
